<svg width="36" height="36" viewBox="0 0 36 36" fill="none" xmlns="http://www.w3.org/2000/svg">
<g clip-path="url(#clip0_3_133)">
<path fill-rule="evenodd" clip-rule="evenodd" d="M22.5 28.125C22.5 28.4234 22.3815 28.7095 22.1705 28.9205C21.9595 29.1315 21.6734 29.25 21.375 29.25H3.375C3.07663 29.25 2.79048 29.1315 2.5795 28.9205C2.36853 28.7095 2.25 28.4234 2.25 28.125V7.875C2.25 7.57663 2.36853 7.29048 2.5795 7.0795C2.79048 6.86853 3.07663 6.75 3.375 6.75H21.375C21.6734 6.75 21.9595 6.86853 22.1705 7.0795C22.3815 7.29048 22.5 7.57663 22.5 7.875V12.375C22.5 12.6734 22.6185 12.9595 22.8295 13.1705C23.0405 13.3815 23.3266 13.5 23.625 13.5C23.9234 13.5 24.2095 13.3815 24.4205 13.1705C24.6315 12.9595 24.75 12.6734 24.75 12.375V7.875C24.75 6.97989 24.3944 6.12145 23.7615 5.48851C23.1286 4.85558 22.2701 4.5 21.375 4.5H3.375C2.47989 4.5 1.62145 4.85558 0.988515 5.48851C0.355579 6.12145 0 6.97989 0 7.875L0 28.125C0 29.0201 0.355579 29.8786 0.988515 30.5115C1.62145 31.1444 2.47989 31.5 3.375 31.5H21.375C22.2701 31.5 23.1286 31.1444 23.7615 30.5115C24.3944 29.8786 24.75 29.0201 24.75 28.125V23.625C24.75 23.3266 24.6315 23.0405 24.4205 22.8295C24.2095 22.6185 23.9234 22.5 23.625 22.5C23.3266 22.5 23.0405 22.6185 22.8295 22.8295C22.6185 23.0405 22.5 23.3266 22.5 23.625V28.125Z" fill="#9591E1"/>
<path fill-rule="evenodd" clip-rule="evenodd" d="M35.6715 18.7965C35.7763 18.692 35.8594 18.5678 35.9161 18.4312C35.9728 18.2945 36.002 18.148 36.002 18C36.002 17.852 35.9728 17.7055 35.9161 17.5688C35.8594 17.4321 35.7763 17.308 35.6715 17.2035L28.9215 10.4535C28.7103 10.2422 28.4237 10.1236 28.125 10.1236C27.8263 10.1236 27.5397 10.2422 27.3285 10.4535C27.1173 10.6647 26.9986 10.9512 26.9986 11.25C26.9986 11.5487 27.1173 11.8352 27.3285 12.0465L32.1593 16.875H12.375C12.0766 16.875 11.7905 16.9935 11.5795 17.2045C11.3685 17.4155 11.25 17.7016 11.25 18C11.25 18.2984 11.3685 18.5845 11.5795 18.7955C11.7905 19.0065 12.0766 19.125 12.375 19.125H32.1593L27.3285 23.9535C27.1173 24.1647 26.9986 24.4512 26.9986 24.75C26.9986 25.0487 27.1173 25.3352 27.3285 25.5465C27.5397 25.7577 27.8263 25.8764 28.125 25.8764C28.4237 25.8764 28.7103 25.7577 28.9215 25.5465L35.6715 18.7965Z" fill="#9591E1"/>
</g>
<defs>
<clipPath id="clip0_3_133">
<rect width="36" height="36" fill="white"/>
</clipPath>
</defs>
</svg>
