<svg width="112" height="24" viewBox="0 0 112 24" fill="none" xmlns="http://www.w3.org/2000/svg">
<g clip-path="url(#clip0_59_333)">
<path d="M4.29893 22.275C4.18193 22.941 4.83893 23.4615 5.41793 23.1645L12.0029 19.7805L18.5864 23.1645C19.1654 23.4615 19.8224 22.941 19.7054 22.2765L18.4604 15.1815L23.7434 10.1475C24.2384 9.67651 23.9834 8.81551 23.3204 8.72251L15.9734 7.67851L12.6974 1.18801C12.635 1.05644 12.5366 0.945281 12.4135 0.867445C12.2904 0.789609 12.1478 0.748291 12.0022 0.748291C11.8566 0.748291 11.7139 0.789609 11.5909 0.867445C11.4678 0.945281 11.3693 1.05644 11.3069 1.18801L8.03093 7.68001L0.683933 8.72401C0.0224333 8.81701 -0.234067 9.67801 0.259433 10.149L5.54393 15.183L4.29893 22.278V22.275ZM11.6564 18.1245L6.12743 20.9655L7.16843 15.03C7.19349 14.8934 7.18427 14.7527 7.1416 14.6205C7.09893 14.4883 7.02415 14.3687 6.92393 14.2725L2.56493 10.1175L8.64293 9.25351C8.76858 9.2339 8.88769 9.18443 8.99027 9.10926C9.09284 9.03409 9.17589 8.93541 9.23243 8.82151L11.9999 3.33451L14.7704 8.82151C14.827 8.93541 14.91 9.03409 15.0126 9.10926C15.1152 9.18443 15.2343 9.2339 15.3599 9.25351L21.4379 10.116L17.0789 14.271C16.9785 14.3674 16.9036 14.4872 16.8609 14.6196C16.8182 14.7521 16.8091 14.8931 16.8344 15.03L17.8754 20.9655L12.3464 18.1245C12.2396 18.069 12.121 18.0401 12.0007 18.0401C11.8803 18.0401 11.7632 18.069 11.6564 18.1245Z" fill="#8552DC"/>
</g>
<path d="M67.2531 2.90998C67.3932 3.05056 67.4719 3.24097 67.4719 3.43948C67.4719 3.63799 67.3932 3.82839 67.2531 3.96898L65.6886 5.53498L62.6886 2.53498L64.2531 0.96898C64.3937 0.828376 64.5844 0.74939 64.7833 0.74939C64.9822 0.74939 65.1729 0.828376 65.3136 0.96898L67.2531 2.90848V2.90998ZM64.6281 6.59398L61.6281 3.59398L51.4086 13.815C51.326 13.8975 51.2639 13.9982 51.2271 14.109L50.0196 17.73C49.9977 17.796 49.9946 17.8668 50.0106 17.9345C50.0266 18.0022 50.0611 18.064 50.1103 18.1132C50.1595 18.1624 50.2214 18.1969 50.2891 18.213C50.3567 18.229 50.4275 18.2259 50.4936 18.204L54.1146 16.9965C54.2252 16.9601 54.3259 16.8985 54.4086 16.8165L64.6281 6.59398Z" fill="#8552DC"/>
<path fill-rule="evenodd" clip-rule="evenodd" d="M45.5 20.25C45.5 20.8467 45.7371 21.419 46.159 21.841C46.581 22.2629 47.1533 22.5 47.75 22.5H64.25C64.8467 22.5 65.419 22.2629 65.841 21.841C66.2629 21.419 66.5 20.8467 66.5 20.25V11.25C66.5 11.0511 66.421 10.8603 66.2803 10.7197C66.1397 10.579 65.9489 10.5 65.75 10.5C65.5511 10.5 65.3603 10.579 65.2197 10.7197C65.079 10.8603 65 11.0511 65 11.25V20.25C65 20.4489 64.921 20.6397 64.7803 20.7803C64.6397 20.921 64.4489 21 64.25 21H47.75C47.5511 21 47.3603 20.921 47.2197 20.7803C47.079 20.6397 47 20.4489 47 20.25V3.75C47 3.55109 47.079 3.36032 47.2197 3.21967C47.3603 3.07902 47.5511 3 47.75 3H57.5C57.6989 3 57.8897 2.92098 58.0303 2.78033C58.171 2.63968 58.25 2.44891 58.25 2.25C58.25 2.05109 58.171 1.86032 58.0303 1.71967C57.8897 1.57902 57.6989 1.5 57.5 1.5H47.75C47.1533 1.5 46.581 1.73705 46.159 2.15901C45.7371 2.58097 45.5 3.15326 45.5 3.75V20.25Z" fill="#8552DC"/>
<path d="M96.25 8.25C96.4489 8.25 96.6397 8.32902 96.7803 8.46967C96.921 8.61032 97 8.80109 97 9V18C97 18.1989 96.921 18.3897 96.7803 18.5303C96.6397 18.671 96.4489 18.75 96.25 18.75C96.0511 18.75 95.8603 18.671 95.7197 18.5303C95.579 18.3897 95.5 18.1989 95.5 18V9C95.5 8.80109 95.579 8.61032 95.7197 8.46967C95.8603 8.32902 96.0511 8.25 96.25 8.25ZM100 8.25C100.199 8.25 100.39 8.32902 100.53 8.46967C100.671 8.61032 100.75 8.80109 100.75 9V18C100.75 18.1989 100.671 18.3897 100.53 18.5303C100.39 18.671 100.199 18.75 100 18.75C99.8011 18.75 99.6103 18.671 99.4697 18.5303C99.329 18.3897 99.25 18.1989 99.25 18V9C99.25 8.80109 99.329 8.61032 99.4697 8.46967C99.6103 8.32902 99.8011 8.25 100 8.25ZM104.5 9C104.5 8.80109 104.421 8.61032 104.28 8.46967C104.14 8.32902 103.949 8.25 103.75 8.25C103.551 8.25 103.36 8.32902 103.22 8.46967C103.079 8.61032 103 8.80109 103 9V18C103 18.1989 103.079 18.3897 103.22 18.5303C103.36 18.671 103.551 18.75 103.75 18.75C103.949 18.75 104.14 18.671 104.28 18.5303C104.421 18.3897 104.5 18.1989 104.5 18V9Z" fill="#8552DC"/>
<path d="M109.75 4.5C109.75 4.89782 109.592 5.27936 109.311 5.56066C109.029 5.84196 108.648 6 108.25 6H107.5V19.5C107.5 20.2956 107.184 21.0587 106.621 21.6213C106.059 22.1839 105.296 22.5 104.5 22.5H95.5C94.7044 22.5 93.9413 22.1839 93.3787 21.6213C92.8161 21.0587 92.5 20.2956 92.5 19.5V6H91.75C91.3522 6 90.9706 5.84196 90.6893 5.56066C90.408 5.27936 90.25 4.89782 90.25 4.5V3C90.25 2.60218 90.408 2.22064 90.6893 1.93934C90.9706 1.65804 91.3522 1.5 91.75 1.5H97C97 1.10218 97.158 0.720644 97.4393 0.43934C97.7206 0.158035 98.1022 0 98.5 0L101.5 0C101.898 0 102.279 0.158035 102.561 0.43934C102.842 0.720644 103 1.10218 103 1.5H108.25C108.648 1.5 109.029 1.65804 109.311 1.93934C109.592 2.22064 109.75 2.60218 109.75 3V4.5ZM94.177 6L94 6.0885V19.5C94 19.8978 94.158 20.2794 94.4393 20.5607C94.7206 20.842 95.1022 21 95.5 21H104.5C104.898 21 105.279 20.842 105.561 20.5607C105.842 20.2794 106 19.8978 106 19.5V6.0885L105.823 6H94.177ZM91.75 4.5H108.25V3H91.75V4.5Z" fill="#8552DC"/>
<defs>
<clipPath id="clip0_59_333">
<rect width="24" height="24" fill="white"/>
</clipPath>
</defs>
</svg>
