<svg width="28" height="28" viewBox="0 0 28 28" fill="none" xmlns="http://www.w3.org/2000/svg">
<path d="M4.37502 14C4.37475 12.3103 4.81929 10.6504 5.66396 9.18698C6.50862 7.72359 7.72363 6.50834 9.18686 5.66339C10.6501 4.81844 12.31 4.37357 13.9996 4.37351C15.6893 4.37344 17.3492 4.81818 18.8125 5.66301C19.0134 5.77721 19.2513 5.80733 19.4742 5.74679C19.6972 5.68625 19.8872 5.53997 20.0028 5.33987C20.1183 5.13977 20.15 4.90209 20.0909 4.67871C20.0319 4.45532 19.8868 4.26437 19.6875 4.14751C17.519 2.89553 14.998 2.39405 12.5155 2.72084C10.0329 3.04764 7.72756 4.18444 5.95693 5.95495C4.18631 7.72547 3.04935 10.0307 2.7224 12.5133C2.39545 14.9958 2.89677 17.5168 4.14861 19.6854C5.40045 21.854 7.33286 23.5489 9.64615 24.5073C11.9594 25.4657 14.5243 25.6341 16.943 24.9862C19.3617 24.3384 21.4991 22.9106 23.0236 20.9242C24.5482 18.9379 25.3747 16.504 25.375 14C25.375 13.7679 25.2828 13.5454 25.1187 13.3813C24.9546 13.2172 24.7321 13.125 24.5 13.125C24.268 13.125 24.0454 13.2172 23.8813 13.3813C23.7172 13.5454 23.625 13.7679 23.625 14C23.625 16.5527 22.611 19.0009 20.8059 20.8059C19.0009 22.611 16.5527 23.625 14 23.625C11.4473 23.625 8.99915 22.611 7.19411 20.8059C5.38908 19.0009 4.37502 16.5527 4.37502 14Z" fill="#B2A0D2"/>
<path d="M26.8695 5.86951C26.9509 5.78815 27.0154 5.69157 27.0594 5.58528C27.1035 5.47898 27.1261 5.36506 27.1261 5.25001C27.1261 5.13495 27.1035 5.02103 27.0594 4.91474C27.0154 4.80844 26.9509 4.71186 26.8695 4.63051C26.7882 4.54915 26.6916 4.48462 26.5853 4.44059C26.479 4.39656 26.3651 4.3739 26.25 4.3739C26.135 4.3739 26.021 4.39656 25.9147 4.44059C25.8084 4.48462 25.7119 4.54915 25.6305 4.63051L14 16.2628L9.36951 11.6305C9.28815 11.5492 9.19157 11.4846 9.08528 11.4406C8.97898 11.3966 8.86506 11.3739 8.75001 11.3739C8.63496 11.3739 8.52103 11.3966 8.41474 11.4406C8.30844 11.4846 8.21186 11.5492 8.13051 11.6305C8.04915 11.7119 7.98462 11.8084 7.94059 11.9147C7.89656 12.021 7.8739 12.135 7.8739 12.25C7.8739 12.3651 7.89656 12.479 7.94059 12.5853C7.98462 12.6916 8.04915 12.7882 8.13051 12.8695L13.3805 18.1195C13.4618 18.201 13.5583 18.2656 13.6646 18.3098C13.771 18.3539 13.8849 18.3766 14 18.3766C14.1151 18.3766 14.2291 18.3539 14.3354 18.3098C14.4417 18.2656 14.5382 18.201 14.6195 18.1195L26.8695 5.86951Z" fill="#B2A0D2"/>
</svg>
