<svg width="24" height="24" viewBox="0 0 24 24" fill="none" xmlns="http://www.w3.org/2000/svg">
<g clip-path="url(#clip0_59_334)">
<path d="M4.29893 22.275C4.18193 22.941 4.83893 23.4615 5.41793 23.1645L12.0029 19.7805L18.5864 23.1645C19.1654 23.4615 19.8224 22.941 19.7054 22.2765L18.4604 15.1815L23.7434 10.1475C24.2384 9.67651 23.9834 8.81551 23.3204 8.72251L15.9734 7.67851L12.6974 1.18801C12.635 1.05644 12.5366 0.945281 12.4135 0.867445C12.2904 0.789609 12.1478 0.748291 12.0022 0.748291C11.8566 0.748291 11.7139 0.789609 11.5909 0.867445C11.4678 0.945281 11.3693 1.05644 11.3069 1.18801L8.03093 7.68001L0.683933 8.72401C0.0224333 8.81701 -0.234067 9.67801 0.259433 10.149L5.54393 15.183L4.29893 22.278V22.275ZM11.6564 18.1245L6.12743 20.9655L7.16843 15.03C7.19349 14.8934 7.18427 14.7527 7.1416 14.6205C7.09893 14.4883 7.02415 14.3687 6.92393 14.2725L2.56493 10.1175L8.64293 9.25351C8.76858 9.2339 8.88769 9.18443 8.99027 9.10926C9.09284 9.03409 9.17589 8.93541 9.23243 8.82151L11.9999 3.33451L14.7704 8.82151C14.827 8.93541 14.91 9.03409 15.0126 9.10926C15.1152 9.18443 15.2343 9.2339 15.3599 9.25351L21.4379 10.116L17.0789 14.271C16.9785 14.3674 16.9036 14.4872 16.8609 14.6196C16.8182 14.7521 16.8091 14.8931 16.8344 15.03L17.8754 20.9655L12.3464 18.1245C12.2396 18.069 12.121 18.0401 12.0007 18.0401C11.8803 18.0401 11.7632 18.069 11.6564 18.1245Z" fill="currentColor"/>
</g>
<defs>
<clipPath id="clip0_59_334">
<rect width="24" height="24" fill="white"/>
</clipPath>
</defs>
</svg>
