<svg width="18" height="19" viewBox="0 0 18 19" fill="none" xmlns="http://www.w3.org/2000/svg">
<path d="M0.615036 1.11504C0.731151 0.998628 0.86909 0.906271 1.02095 0.843255C1.17282 0.780239 1.33562 0.747803 1.50004 0.747803C1.66445 0.747803 1.82726 0.780239 1.97912 0.843255C2.13098 0.906271 2.26892 0.998628 2.38504 1.11504L9.00004 7.73254L15.615 1.11504C15.7313 0.998817 15.8692 0.906626 16.0211 0.843728C16.1729 0.78083 16.3357 0.748457 16.5 0.748457C16.6644 0.748457 16.8271 0.78083 16.979 0.843728C17.1308 0.906626 17.2688 0.998817 17.385 1.11504C17.5013 1.23126 17.5934 1.36923 17.6563 1.52108C17.7192 1.67293 17.7516 1.83568 17.7516 2.00004C17.7516 2.1644 17.7192 2.32715 17.6563 2.479C17.5934 2.63084 17.5013 2.76882 17.385 2.88504L10.7675 9.50004L17.385 16.115C17.5013 16.2313 17.5934 16.3692 17.6563 16.5211C17.7192 16.6729 17.7516 16.8357 17.7516 17C17.7516 17.1644 17.7192 17.3271 17.6563 17.479C17.5934 17.6308 17.5013 17.7688 17.385 17.885C17.2688 18.0013 17.1308 18.0934 16.979 18.1563C16.8271 18.2192 16.6644 18.2516 16.5 18.2516C16.3357 18.2516 16.1729 18.2192 16.0211 18.1563C15.8692 18.0934 15.7313 18.0013 15.615 17.885L9.00004 11.2675L2.38504 17.885C2.26882 18.0013 2.13084 18.0934 1.979 18.1563C1.82715 18.2192 1.6644 18.2516 1.50004 18.2516C1.33568 18.2516 1.17293 18.2192 1.02108 18.1563C0.869229 18.0934 0.731256 18.0013 0.615036 17.885C0.498817 17.7688 0.406626 17.6308 0.343728 17.479C0.28083 17.3271 0.248457 17.1644 0.248457 17C0.248457 16.8357 0.28083 16.6729 0.343728 16.5211C0.406626 16.3692 0.498817 16.2313 0.615036 16.115L7.23254 9.50004L0.615036 2.88504C0.498628 2.76892 0.406271 2.63098 0.343255 2.47912C0.280239 2.32726 0.247803 2.16445 0.247803 2.00004C0.247803 1.83562 0.280239 1.67282 0.343255 1.52095C0.406271 1.36909 0.498628 1.23115 0.615036 1.11504Z" fill="#212121"/>
</svg>
